<svg class="brand-logo logo-primary" viewBox="0 0 1267 397" xmlns="http://www.w3.org/2000/svg" xmlns:xlink="http://www.w3.org/1999/xlink" fill-rule="evenodd" clip-rule="evenodd" stroke-linejoin="round" stroke-miterlimit="1.414"><path class="logo-path" d="M.775 61.454s2.217-.266 6.829-9.906c2.523-5.274 9.894-23.214 11.71-27.416C30.927-2.736 60.129 8.271 71.439 27.267c3.401 5.711 5.935 14.011.211 18.661-3.505 2.849-13.519 7.739-24.056 8.304-9.131.49-18.94-2.316-25.14-12.368-.347-.562 3.138-9.158 3.138-9.158 4.288 12.25 12.961 15.235 21.639 14.771 9.095-.489 17.745-4.843 20.152-6.798 1.043-.848 4.209-2.938-.16-10.936-6.922-12.672-32.45-24.324-41.698-2.928-1.853 4.29-8.522 20.597-10.68 27.657C11.636 64.19.775 61.454.775 61.454" fill="#e71c35" fill-rule="nonzero" transform="translate(0 83.482) scale(5.07244)"/><g transform="translate(82.779 -28.527) scale(5.07244)"><path class="logo-path" id="a" d="M0 48.579c-4.256-10.533-8.102-26.076-4.278-36.268C-3.229 9.181-1.203 7.026.2 5.778c4.278-.525 6.52 6.717 5.766 14.315-.726 7.335-2.675 11.267-1.168 18.502C2.183 41.749 0 48.579 0 48.579" fill="#e71c35" fill-rule="nonzero"/><animate xlink:href="#a" attributeName="d" to="M0,48.579C-4.256,38.046 -7.813,23.751 -3.983,16.345C-0.577,9.76 4.39,13.954 12.973,9.197C17.806,18.363 2.661,23.63 2.661,23.63C2.661,23.63 2.924,31.683 4.798,38.595C2.183,41.749 0,48.579 0,48.579" dur="1s" calcMode="spline" keySplines="0.4 0 0.2 1; 0.4 0 0.2 1" begin="b.mouseover" end="palbinLogo.mouseout"/></g><path class="logo-eye-path" d="M0-1.922C2.371 3.945 7.459.881 11.631-.049 9.25-3.686 2.893-5.867 0-1.922" fill="#ff9f1c" transform="translate(250.313 226.328) scale(5.07244)"/><g><path class="logo-path" d="M0-44.631c-4.561 0-7.049 2.709-7.049 6.844V-6.2c0 4.915 3.223 7.112 6.472 7.112h2.794v-15.984h.131c1.131 1.652 2.565 2.913 4.305 3.784 1.785.824 3.72 1.238 5.808 1.238 2.479 0 4.633-.478 6.46-1.434 1.87-.959 3.414-2.239 4.633-3.848 1.26-1.611 2.196-3.459 2.805-5.549.61-2.086.912-4.26.912-6.523 0-2.393-.302-4.676-.912-6.852-.609-2.219-1.545-4.154-2.805-5.807-1.262-1.652-2.85-2.98-4.763-3.98-1.915-1.002-4.198-1.5-6.853-1.5-2.087 0-4.001.412-5.742 1.238-1.739.826-3.175 2.154-4.305 3.981H1.76v-4.307H0zm9.98 27.666c-1.478 0-2.739-.303-3.784-.912a7.772 7.772 0 0 1-2.544-2.35c-.609-1-1.066-2.154-1.371-3.459a20.307 20.307 0 0 1-.39-3.98c0-1.391.13-2.74.39-4.045.262-1.305.697-2.457 1.306-3.459a7.72 7.72 0 0 1 2.479-2.414c1.044-.652 2.328-.979 3.85-.979 1.479 0 2.719.327 3.719.979a7.294 7.294 0 0 1 2.545 2.48c.653 1 1.109 2.153 1.371 3.459.303 1.305.456 2.631.456 3.979 0 1.349-.13 2.676-.392 3.98-.26 1.305-.717 2.459-1.37 3.459-.609.957-1.435 1.741-2.479 2.35-1 .609-2.262.912-3.786.912" fill="#e71c35" transform="translate(493.857 382.921) scale(5.07244)"/><path class="logo-path" d="M0 .785v3.457c0 .523-.064 1.219-.196 2.09-.086.869-.369 1.738-.848 2.609-.478.826-1.218 1.545-2.219 2.155-1.001.607-2.414.912-4.241.912a11.6 11.6 0 0 1-2.152-.196c-.697-.131-1.306-.347-1.827-.652a3.75 3.75 0 0 1-1.241-1.371c-.304-.565-.457-1.262-.457-2.088 0-.869.153-1.586.457-2.152a3.997 3.997 0 0 1 1.175-1.371 6.152 6.152 0 0 1 1.762-.913 18.636 18.636 0 0 1 2.088-.523c.74-.129 1.478-.238 2.218-.326a25.64 25.64 0 0 0 2.088-.326A17.23 17.23 0 0 0-1.5 1.633c.608-.217 1.108-.5 1.5-.848m-21.402-6.852c3.426 0 5.799-1.871 9.302-3.652 2.045-1.039 4.27-1.435 6.097-1.435.826 0 1.587.064 2.283.195.74.086 1.371.305 1.893.652.565.305 1.001.76 1.306 1.369.347.567.521 1.348.521 2.35.043.957-.239 1.695-.849 2.219-.608.478-1.435.847-2.478 1.109-1.044.26-2.24.455-3.59.586a70.868 70.868 0 0 0-4.11.523 35.772 35.772 0 0 0-4.176.913A11.593 11.593 0 0 0-18.857.394c-1.044.739-1.914 1.739-2.61 3-.653 1.219-.978 2.786-.978 4.7 0 1.74.282 3.24.847 4.502.61 1.261 1.436 2.305 2.48 3.131 1.044.827 2.262 1.434 3.654 1.827 1.392.39 2.892.585 4.502.585 2.087 0 4.133-.304 6.134-.912 2-.609 3.74-1.675 5.22-3.196.044.565.108 1.13.196 1.696.13.522.282 1.043.457 1.565h1.369c5.012 0 6.852-4.663 6.852-7.503V-7.762c0-2.045-.457-3.676-1.371-4.894a9.251 9.251 0 0 0-3.523-2.936c-1.436-.697-3.024-1.152-4.764-1.371a34.845 34.845 0 0 0-5.155-.391c-1.869 0-3.74.194-5.611.586-1.826.348-3.48.957-4.958 1.828a11.1 11.1 0 0 0-3.654 3.457c-.959 1.436-1.502 3.241-1.632 5.416" fill="#e71c35" transform="translate(751.452 239.931) scale(5.07244)"/><path class="logo-path" d="M0-46.587c-3.949 0-7.09 2.627-7.09 7.311v31.298C-7.09-4.085-5.465 0-.701 0h2.876v-46.587H0z" fill="#e71c35" transform="translate(850.543 327.643) scale(5.07244)"/><path class="logo-path" d="M0 11.552c0 1.652-.174 3.262-.521 4.828-.349 1.567-.915 2.959-1.697 4.176-.784 1.219-1.827 2.197-3.133 2.937-1.26.739-2.848 1.11-4.762 1.11-1.914 0-3.546-.35-4.894-1.045-1.348-.74-2.458-1.697-3.329-2.871-.826-1.174-1.435-2.524-1.826-4.045a19.866 19.866 0 0 1-.588-4.828c0-1.567.175-3.112.522-4.633.392-1.524 1.001-2.871 1.828-4.047A9.436 9.436 0 0 1-15.203.198c1.306-.738 2.892-1.109 4.764-1.109 1.783 0 3.327.35 4.631 1.045 1.35.695 2.437 1.631 3.263 2.805.871 1.174 1.5 2.523 1.893 4.047.434 1.478.652 3 .652 4.566m-21.606-29.428c-2.36 0-4.495 2.514-4.495 5.233V23.65c0 3.385 1.806 5.061 3.804 5.061h1.744V24.21h.129a9.64 9.64 0 0 0 2.219 2.544 13.311 13.311 0 0 0 2.872 1.567c1 .39 2.001.671 3.001.845 1.044.176 1.978.262 2.807.262 2.565 0 4.805-.455 6.72-1.369 1.957-.912 3.566-2.153 4.827-3.718 1.305-1.609 2.263-3.48 2.873-5.613.651-2.129.978-4.391.978-6.785 0-2.391-.327-4.655-.978-6.786-.654-2.13-1.632-4.001-2.937-5.611C.696-2.106-.914-3.413-2.871-4.37c-1.914-.955-4.176-1.433-6.787-1.433-2.348 0-4.5.433-6.459 1.304-1.957.826-3.393 2.174-4.307 4.045h-.129v-17.422h-1.053z" fill="#e71c35" transform="translate(1019.88 182.007) scale(5.07244)"/><path class="logo-path" d="M0-20.879V6.254c0 5.013 2.108 6.6 4.631 6.6h.916v-33.733H0zm5.547-6.068v-6.786h-.925C2.254-33.733 0-31.647 0-28.77v1.823h5.547z" fill="#e71c35" transform="translate(1068.97 262.44) scale(5.07244)"/><path class="logo-path" d="M0-32.952c-2.234 0-4.03 2.137-4.03 4.506v24.117c0 3.146 1.845 5.11 4.323 5.11h1.222V-18.27c0-1.522.196-2.914.587-4.176.435-1.305 1.066-2.436 1.892-3.393a8.31 8.31 0 0 1 3.068-2.218c1.261-.522 2.739-.784 4.436-.784 2.131 0 3.807.61 5.024 1.827 1.218 1.218 1.828 2.871 1.828 4.96v17.811c0 2.788 1.877 5.024 4.478 5.024h1.068v-22.184c0-1.826-.196-3.479-.587-4.957-.348-1.524-.98-2.828-1.893-3.916s-2.109-1.936-3.589-2.545c-1.478-.608-3.328-.912-5.545-.912-5.004 0-8.658 2.043-10.963 6.133h-.13v-5.352H0z" fill="#e71c35" transform="translate(1145.79 323.68) scale(5.07244)"/></g></svg>